Coordinates
version=1
nRows=14
nColumns=28
inDegrees=yes

Units are S.I. units (second, meters, Newtons, ...)
Angles are in degrees.

endheader
time	pelvis_tilt	pelvis_list	pelvis_rotation	pelvis_tx	pelvis_ty	pelvis_tz	hip_flexion_r	hip_adduction_r	hip_rotation_r	knee_angle_r	ankle_angle_r	subtalar_angle_r	mtp_angle_r	hip_flexion_l	hip_adduction_l	hip_rotation_l	knee_angle_l	socket_flexion	socket_adduction	socket_rotation	socket_tx	socket_ty	socket_tz	foot_flex	lumbar_extension	lumbar_bending	lumbar_rotation
      0.63333333	      0.55109803	     -2.82750658	      6.56255291	     -0.00144544	      0.98881724	      0.26509770	     23.71341809	      2.98154810	     -8.79598397	     -6.23752478	     18.24303527	    -16.53679230	    -21.68358187	    -25.29111228	     -5.36286770	     -2.33848792	     -0.99176894	     10.36130276	      0.00000000	      0.00000000	      0.00000000	      0.00000000	      0.00000000	      8.08115607	    -11.00022864	      3.39315048	     -2.93093576
      0.63750000	      0.10694837	     -2.72200709	      6.66270198	     -0.00128876	      0.98827006	      0.26495118	     24.24873227	      2.74470169	     -9.03783518	     -6.39798108	     17.82437298	    -16.37994784	    -19.60930432	    -24.72466239	     -5.26213228	     -2.09250753	     -1.19388676	     10.28538744	      0.00000000	      0.00000000	      0.00000000	      0.00000000	      0.00000000	      8.10162013	    -10.44424034	      3.25296814	     -3.32154591
      0.64166667	      0.20631606	     -2.88650672	      6.73314314	      0.00507319	      0.98747488	      0.26534960	     24.35475458	      2.97036233	     -8.73961364	     -7.21219452	     17.55745765	    -16.40437991	    -19.49497534	    -25.01128828	     -5.52462598	     -2.08076628	     -1.46731156	     10.34151566	      0.00000000	      0.00000000	      0.00000000	      0.00000000	      0.00000000	      8.00392074	    -10.50159496	      3.51177350	     -3.23595887
      0.64583333	      0.55477954	     -3.07279317	      6.54950728	      0.01171464	      0.98678102	      0.26589685	     24.30748087	      3.28470266	     -8.72199662	     -8.14895546	     14.79080757	    -17.15708896	    -10.13564309	    -25.67308096	     -5.68507191	     -2.59051079	     -1.68671458	     10.39103170	      0.00000000	      0.00000000	      0.00000000	      0.00000000	      0.00000000	      7.92155750	    -10.82149144	      3.78543182	     -2.75556852
      0.65000000	      0.60446110	     -3.22963433	      6.65286472	      0.01817003	      0.98603410	      0.26626172	     24.43721334	      3.48271502	     -8.45842293	     -8.94783865	     14.52040114	    -17.13938255	    -10.15682124	    -25.86806088	     -5.95061019	     -2.49292680	     -2.01747521	     10.45752339	      0.00000000	      0.00000000	      0.00000000	      0.00000000	      0.00000000	      7.78492286	    -10.80462991	      4.03911239	     -2.76479261
      0.65416667	      0.70204516	     -3.44021201	      6.53241141	      0.02470577	      0.98526136	      0.26684144	     24.73375121	      3.77024391	     -8.46481842	    -10.14875603	     13.99657197	    -17.27057452	    -10.12786766	    -26.09062626	     -6.14912430	     -2.89702810	     -2.55598234	     10.40224730	      0.00000000	      0.00000000	      0.00000000	      0.00000000	      0.00000000	      7.66664429	    -10.82859892	      4.35111711	     -2.78058309
      0.65833333	      0.75475347	     -3.61388294	      6.60381585	      0.03121131	      0.98460228	      0.26728996	     24.86323626	      3.99881784	     -8.17903877	    -10.97421054	     13.71117871	    -17.24898205	    -10.11034917	    -26.26059250	     -6.41989455	     -2.81044011	     -2.93393705	     10.47752917	      0.00000000	      0.00000000	      0.00000000	      0.00000000	      0.00000000	      7.48370354	    -10.80469858	      4.61393617	     -2.75817194
      0.66250000	      0.84831764	     -3.83155196	      6.38365052	      0.03791264	      0.98387281	      0.26794711	     25.16336932	      4.31655200	     -8.16864920	    -12.20741737	     13.11911589	    -17.40624483	     -9.94256571	    -26.45645636	     -6.57211584	     -3.33857393	     -3.59468285	     10.38254066	      0.00000000	      0.00000000	      0.00000000	      0.00000000	      0.00000000	      7.32769889	    -10.77336374	      4.94927581	     -2.66740450
      0.66666667	      0.81033741	     -4.02105466	      6.20913656	      0.04455740	      0.98304295	      0.26883039	     25.42914846	      4.64401493	     -7.77575921	    -13.04135661	     11.13338844	    -18.29679262	     -4.25075648	    -26.49845106	     -6.74345731	     -3.63310594	     -4.17841742	     10.37224055	      0.00000000	      0.00000000	      0.00000000	      0.00000000	      0.00000000	      7.09681061	    -10.67693864	      5.13454314	     -2.31673196
      0.67083333	      0.91750187	     -4.24184863	      6.13864795	      0.05117758	      0.98255421	      0.26942331	     25.60415069	      4.93489275	     -7.72220589	    -14.09224051	     10.75253854	    -18.33497677	     -4.26670050	    -26.64752730	     -6.99010320	     -3.88489551	     -4.80315860	     10.37137475	      0.00000000	      0.00000000	      0.00000000	      0.00000000	      0.00000000	      6.84579096	    -10.69362561	      5.45286713	     -2.28665729
      0.67500000	      1.01172815	     -4.47869848	      6.04279482	      0.05783712	      0.98209228	      0.27013981	     25.75616707	      5.27108428	     -7.56554574	    -15.08347722	     10.39533122	    -18.36039080	     -4.23391973	    -26.76336943	     -7.24925307	     -4.08500465	     -5.48195924	     10.35378160	      0.00000000	      0.00000000	      0.00000000	      0.00000000	      0.00000000	      6.56361910	    -10.70995973	      5.77291562	     -2.20355199
      0.67916667	      1.11022915	     -4.72154567	      5.92917536	      0.06451169	      0.98169263	      0.27089020	     25.89811508	      5.61648880	     -7.43061663	    -16.07083688	     10.04005000	    -18.41736232	     -4.18287820	    -26.85120553	     -7.50756518	     -4.35627273	     -6.22712387	     10.33021634	      0.00000000	      0.00000000	      0.00000000	      0.00000000	      0.00000000	      6.24707898	    -10.72739305	      6.07850674	     -2.10481741
      0.68333333	      1.20952604	     -4.98177087	      5.76855337	      0.07123561	      0.98132451	      0.27172953	     26.01431383	      6.00690366	     -7.23232517	    -17.02384046	      9.66291557	    -18.50787037	     -4.05569186	    -26.89730893	     -7.76937184	     -4.68790263	     -7.11008436	     10.25162661	      0.00000000	      0.00000000	      0.00000000	      0.00000000	      0.00000000	      5.95996474	    -10.74344747	      6.40495217	     -1.91252536
      0.68750000	      1.28292908	     -5.23899566	      5.59755814	      0.07787824	      0.98105673	      0.27263645	     26.10931348	      6.41411350	     -6.94061622	    -17.87903822	      9.27137046	    -18.69744396	     -3.80271047	    -26.87369795	     -8.02833687	     -4.98089918	     -8.04461101	     10.17773963	      0.00000000	      0.00000000	      0.00000000	      0.00000000	      0.00000000	      5.57681538	    -10.75487717	      6.70181629	     -1.63569664
